<svg width="22" height="17" viewBox="0 0 22 17" fill="none" xmlns="http://www.w3.org/2000/svg">
<path d="M14.6667 4.72222H12.8333V7.55556H10.0833V9.44444H12.8333V12.2778H14.6667V9.44444H17.4167V7.55556H14.6667M1.83333 8.5C1.83333 5.865 3.33667 3.58889 5.5 2.53111V0.472222C2.29167 1.66222 0 4.80722 0 8.5C0 12.1928 2.29167 15.3378 5.5 16.5278V14.4689C3.33667 13.4111 1.83333 11.135 1.83333 8.5ZM13.75 0C9.20333 0 5.5 3.81556 5.5 8.5C5.5 13.1844 9.20333 17 13.75 17C18.2967 17 22 13.1844 22 8.5C22 3.81556 18.2967 0 13.75 0ZM13.75 15.1111C10.2117 15.1111 7.33333 12.1456 7.33333 8.5C7.33333 4.85444 10.2117 1.88889 13.75 1.88889C17.2883 1.88889 20.1667 4.85444 20.1667 8.5C20.1667 12.1456 17.2883 15.1111 13.75 15.1111Z" fill="#666666"/>
</svg>
