<svg width="16" height="18" viewBox="0 0 16 18" fill="none" xmlns="http://www.w3.org/2000/svg">
<path d="M6.22222 16.2857H9.77778C9.77778 17.2286 8.97778 18 8 18C7.02222 18 6.22222 17.2286 6.22222 16.2857ZM16 14.5714V15.4286H0V14.5714L1.77778 12.8571V7.71429C1.77778 5.05714 3.55556 2.74286 6.22222 1.97143V1.71429C6.22222 0.771429 7.02222 0 8 0C8.97778 0 9.77778 0.771429 9.77778 1.71429V1.97143C12.4444 2.74286 14.2222 5.05714 14.2222 7.71429V12.8571L16 14.5714ZM12.4444 7.71429C12.4444 5.31429 10.4889 3.42857 8 3.42857C5.51111 3.42857 3.55556 5.31429 3.55556 7.71429V13.7143H12.4444V7.71429Z" fill="#666666"/>
</svg>
