<svg width="14" height="16" viewBox="0 0 14 16" fill="none" xmlns="http://www.w3.org/2000/svg">
<path d="M3.11111 8H4.66667V9.6H3.11111V8ZM14 3.2V14.4C14 15.288 13.3078 16 12.4444 16H1.55556C0.692222 16 0 15.28 0 14.4V3.2C0 2.32 0.7 1.6 1.55556 1.6H2.33333V0H3.88889V1.6H10.1111V0H11.6667V1.6H12.4444C13.3078 1.6 14 2.32 14 3.2ZM1.55556 4.8H12.4444V3.2H1.55556V4.8ZM12.4444 14.4V6.4H1.55556V14.4H12.4444ZM9.33333 9.6V8H10.8889V9.6H9.33333ZM6.22222 9.6V8H7.77778V9.6H6.22222ZM3.11111 11.2H4.66667V12.8H3.11111V11.2ZM9.33333 12.8V11.2H10.8889V12.8H9.33333ZM6.22222 12.8V11.2H7.77778V12.8H6.22222Z" fill="#757272"/>
</svg>
