<svg width="17" height="17" viewBox="0 0 17 17" fill="none" xmlns="http://www.w3.org/2000/svg">
<path d="M8.53417 0.12207C3.86985 0.12207 0.0683418 3.87741 0.0683418 8.4851C0.0683418 9.96192 0.461307 11.3965 1.19598 12.6624L0 17L4.48492 15.8354C5.72362 16.5021 7.11608 16.8566 8.53417 16.8566C13.1985 16.8566 17 13.1012 17 8.49353C17 6.25721 16.1201 4.1559 14.5226 2.57781C12.9251 0.991285 10.798 0.12207 8.53417 0.12207ZM8.54271 1.53138C10.4221 1.53138 12.1819 2.25713 13.5146 3.57361C14.8387 4.89009 15.5734 6.63696 15.5734 8.49353C15.5734 12.3248 12.4126 15.4388 8.53417 15.4388C7.26985 15.4388 6.03116 15.1097 4.95477 14.4683L4.69849 14.3249L2.03317 15.0169L2.74221 12.4514L2.57136 12.1814C1.87085 11.0927 1.49497 9.80157 1.49497 8.4851C1.50352 4.6538 4.65578 1.53138 8.54271 1.53138ZM5.53568 4.62004C5.39899 4.62004 5.16834 4.67068 4.97186 4.88165C4.78392 5.09263 4.22864 5.6074 4.22864 6.62852C4.22864 7.65808 4.98894 8.64544 5.08291 8.7889C5.20251 8.93236 6.58643 11.0421 8.71357 11.9366C9.21759 12.1645 9.61055 12.2911 9.91809 12.3839C10.4221 12.5442 10.8834 12.5189 11.2508 12.4683C11.6608 12.4092 12.498 11.962 12.6774 11.4725C12.8568 10.983 12.8568 10.5695 12.8055 10.4767C12.7457 10.3923 12.609 10.3417 12.3955 10.2488C12.1819 10.1307 11.1397 9.62436 10.9518 9.55684C10.7553 9.48933 10.6357 9.45558 10.4734 9.65811C10.3367 9.86909 9.92663 10.3417 9.80703 10.4767C9.67889 10.6202 9.5593 10.637 9.35427 10.5358C9.13216 10.4261 8.44874 10.2066 7.64573 9.49777C7.01357 8.9408 6.59497 8.25724 6.46683 8.04627C6.36432 7.84373 6.45829 7.71715 6.5608 7.62432C6.65477 7.53149 6.79146 7.37959 6.87688 7.253C6.98794 7.13486 7.02211 7.04203 7.09045 6.90701C7.15879 6.76354 7.12462 6.6454 7.07337 6.54413C7.02211 6.4513 6.59497 5.40487 6.41558 4.99136C6.24472 4.58629 6.07387 4.63692 5.93719 4.62848C5.81759 4.62848 5.6809 4.62004 5.53568 4.62004Z" fill="#666666"/>
</svg>
