<svg width="16" height="16" viewBox="0 0 16 16" fill="none" xmlns="http://www.w3.org/2000/svg">
<path d="M14.9287 7.44022C14.9314 8.46679 14.6915 9.47946 14.2287 10.3958C13.6799 11.4938 12.8363 12.4174 11.7923 13.063C10.7483 13.7086 9.54511 14.0508 8.31759 14.0513C7.29103 14.054 6.27835 13.8142 5.36204 13.3513L0.928711 14.8291L2.40649 10.3958C1.94366 9.47946 1.70381 8.46679 1.70649 7.44022C1.70696 6.2127 2.04919 5.00956 2.69482 3.96555C3.34046 2.92154 4.26401 2.0779 5.36204 1.52912C6.27835 1.06629 7.29103 0.826447 8.31759 0.829124H8.70648C10.3276 0.918562 11.8588 1.60283 13.0069 2.7509C14.155 3.89897 14.8393 5.43018 14.9287 7.05134V7.44022Z" stroke="#333333" stroke-linecap="round" stroke-linejoin="round"/>
</svg>
