<svg width="17" height="16" viewBox="0 0 17 16" fill="none" xmlns="http://www.w3.org/2000/svg">
<path d="M14.5 4H2.5C1.67157 4 1 4.67157 1 5.5V13C1 13.8284 1.67157 14.5 2.5 14.5H14.5C15.3284 14.5 16 13.8284 16 13V5.5C16 4.67157 15.3284 4 14.5 4Z" stroke="#666666" stroke-width="2" stroke-linecap="round" stroke-linejoin="round"/>
<path d="M11.5 14.5V2.5C11.5 2.10218 11.342 1.72064 11.0607 1.43934C10.7794 1.15804 10.3978 1 10 1H7C6.60218 1 6.22064 1.15804 5.93934 1.43934C5.65804 1.72064 5.5 2.10218 5.5 2.5V14.5" stroke="#666666" stroke-width="2" stroke-linecap="round" stroke-linejoin="round"/>
</svg>
