<svg width="17" height="17" viewBox="0 0 17 17" fill="none" xmlns="http://www.w3.org/2000/svg">
<path d="M8.5 5.1C9.42682 5.1 10.3157 5.45821 10.971 6.09584C11.6264 6.73346 11.9946 7.59826 11.9946 8.5C11.9946 9.40174 11.6264 10.2665 10.971 10.9042C10.3157 11.5418 9.42682 11.9 8.5 11.9C7.57318 11.9 6.68432 11.5418 6.02895 10.9042C5.37359 10.2665 5.00541 9.40174 5.00541 8.5C5.00541 7.59826 5.37359 6.73346 6.02895 6.09584C6.68432 5.45821 7.57318 5.1 8.5 5.1ZM8.5 6.8C8.03659 6.8 7.59216 6.97911 7.26448 7.29792C6.9368 7.61673 6.75271 8.04913 6.75271 8.5C6.75271 8.95087 6.9368 9.38327 7.26448 9.70208C7.59216 10.0209 8.03659 10.2 8.5 10.2C8.96341 10.2 9.40784 10.0209 9.73552 9.70208C10.0632 9.38327 10.2473 8.95087 10.2473 8.5C10.2473 8.04913 10.0632 7.61673 9.73552 7.29792C9.40784 6.97911 8.96341 6.8 8.5 6.8ZM6.75271 17C6.53429 17 6.35083 16.847 6.31588 16.643L5.99263 14.3905C5.44224 14.178 4.97047 13.889 4.51617 13.549L2.34079 14.4075C2.14859 14.4755 1.9127 14.4075 1.80787 14.2205L0.0605713 11.2795C-0.0530028 11.0925 -0.00058386 10.863 0.165409 10.7355L2.0088 9.3245L1.94765 8.5L2.0088 7.65L0.165409 6.2645C-0.00058386 6.137 -0.0530028 5.9075 0.0605713 5.7205L1.80787 2.7795C1.9127 2.5925 2.14859 2.516 2.34079 2.5925L4.51617 3.4425C4.97047 3.111 5.44224 2.822 5.99263 2.6095L6.31588 0.357C6.35083 0.153 6.53429 0 6.75271 0H10.2473C10.4657 0 10.6492 0.153 10.6841 0.357L11.0074 2.6095C11.5578 2.822 12.0295 3.111 12.4838 3.4425L14.6592 2.5925C14.8514 2.516 15.0873 2.5925 15.1921 2.7795L16.9394 5.7205C17.053 5.9075 17.0006 6.137 16.8346 6.2645L14.9912 7.65L15.0524 8.5L14.9912 9.35L16.8346 10.7355C17.0006 10.863 17.053 11.0925 16.9394 11.2795L15.1921 14.2205C15.0873 14.4075 14.8514 14.484 14.6592 14.4075L12.4838 13.5575C12.0295 13.889 11.5578 14.178 11.0074 14.3905L10.6841 16.643C10.6492 16.847 10.4657 17 10.2473 17H6.75271ZM7.84477 1.7L7.52152 3.9185C6.47314 4.131 5.54707 4.675 4.87437 5.4315L2.76888 4.5475L2.11364 5.6525L3.95704 6.97C3.60758 7.9645 3.60758 9.044 3.95704 10.03L2.1049 11.356L2.76014 12.461L4.8831 11.577C5.55581 12.325 6.47314 12.869 7.51278 13.073L7.83603 15.3H9.16397L9.48722 13.0815C10.5269 12.869 11.4442 12.325 12.1169 11.577L14.2399 12.461L14.8951 11.356L13.043 10.0385C13.3924 9.044 13.3924 7.9645 13.043 6.97L14.8864 5.6525L14.2311 4.5475L12.1256 5.4315C11.4529 4.675 10.5269 4.131 9.47849 3.927L9.15524 1.7H7.84477Z" fill="#666666"/>
</svg>
