<svg width="21" height="15" viewBox="0 0 21 15" fill="none" xmlns="http://www.w3.org/2000/svg">
<path d="M13.4 13.95C12.95 13.9667 12.5208 13.9792 12.1125 13.9875C11.7042 13.9958 11.3417 14 11.025 14H10C8.81667 14 7.70833 13.9833 6.675 13.95C5.79167 13.9167 4.92083 13.8708 4.0625 13.8125C3.20417 13.7542 2.58333 13.675 2.2 13.575C1.76667 13.4583 1.39167 13.2417 1.075 12.925C0.758333 12.6083 0.541667 12.2333 0.425 11.8C0.325 11.4167 0.245833 10.95 0.1875 10.4C0.129167 9.85 0.0833333 9.325 0.05 8.825C0.0166667 8.225 0 7.61667 0 7C0 6.38333 0.0166667 5.775 0.05 5.175C0.0833333 4.675 0.129167 4.15 0.1875 3.6C0.245833 3.05 0.325 2.58333 0.425 2.2C0.541667 1.76667 0.758333 1.39167 1.075 1.075C1.39167 0.758333 1.76667 0.541667 2.2 0.425C2.58333 0.325 3.20417 0.245833 4.0625 0.1875C4.92083 0.129167 5.79167 0.0833333 6.675 0.05C7.70833 0.0166667 8.81667 0 10 0C11.1833 0 12.2917 0.0166667 13.325 0.05C14.2083 0.0833333 15.0792 0.129167 15.9375 0.1875C16.7958 0.245833 17.4167 0.325 17.8 0.425C18.2333 0.541667 18.6083 0.758333 18.925 1.075C19.2417 1.39167 19.4583 1.76667 19.575 2.2C19.675 2.58333 19.7542 3.05 19.8125 3.6C19.8708 4.15 19.9167 4.675 19.95 5.175C19.9833 5.775 20 6.38333 20 7V7.425C19.6833 7.29167 19.3583 7.1875 19.025 7.1125C18.6917 7.0375 18.35 7 18 7C16.6167 7 15.4375 7.4875 14.4625 8.4625C13.4875 9.4375 13 10.6167 13 12C13 12.35 13.0333 12.6875 13.1 13.0125C13.1667 13.3375 13.2667 13.65 13.4 13.95ZM8 10L13.2 7L8 4V10ZM17 15V13H15V11H17V9H19V11H21V13H19V15H17Z" fill="#666666"/>
</svg>
