<svg width="27" height="16" viewBox="0 0 27 16" fill="none" xmlns="http://www.w3.org/2000/svg">
<path d="M13.5 0C12.4557 0 11.4542 0.421428 10.7158 1.17157C9.97734 1.92172 9.5625 2.93913 9.5625 4C9.5625 5.06087 9.97734 6.07828 10.7158 6.82843C11.4542 7.57857 12.4557 8 13.5 8C14.5443 8 15.5458 7.57857 16.2842 6.82843C17.0227 6.07828 17.4375 5.06087 17.4375 4C17.4375 2.93913 17.0227 1.92172 16.2842 1.17157C15.5458 0.421428 14.5443 0 13.5 0ZM13.5 2.28571C13.9476 2.28571 14.3768 2.46633 14.6932 2.78782C15.0097 3.10931 15.1875 3.54534 15.1875 4C15.1875 4.45466 15.0097 4.89069 14.6932 5.21218C14.3768 5.53367 13.9476 5.71429 13.5 5.71429C13.0524 5.71429 12.6232 5.53367 12.3068 5.21218C11.9903 4.89069 11.8125 4.45466 11.8125 4C11.8125 3.54534 11.9903 3.10931 12.3068 2.78782C12.6232 2.46633 13.0524 2.28571 13.5 2.28571ZM6.1875 3.42857C5.44158 3.42857 4.72621 3.72959 4.19876 4.26541C3.67132 4.80123 3.375 5.52795 3.375 6.28571C3.375 7.36 3.97125 8.28572 4.82625 8.77714C5.23125 9.00572 5.6925 9.14286 6.1875 9.14286C6.6825 9.14286 7.14375 9.00572 7.54875 8.77714C7.965 8.53714 8.31375 8.19429 8.5725 7.78286C7.75125 6.69714 7.3125 5.37143 7.3125 4C7.3125 3.89714 7.3125 3.78286 7.3125 3.68C6.975 3.52 6.5925 3.42857 6.1875 3.42857ZM20.8125 3.42857C20.4075 3.42857 20.025 3.52 19.6875 3.68C19.6875 3.78286 19.6875 3.89714 19.6875 4C19.6875 5.37143 19.2487 6.69714 18.4275 7.78286C18.5625 8 18.7088 8.17143 18.8775 8.34286C19.0575 8.51429 19.2375 8.66286 19.4513 8.77714C19.8563 9.00572 20.3175 9.14286 20.8125 9.14286C21.3075 9.14286 21.7687 9.00572 22.1737 8.77714C23.0287 8.28572 23.625 7.36 23.625 6.28571C23.625 5.52795 23.3287 4.80123 22.8012 4.26541C22.2738 3.72959 21.5584 3.42857 20.8125 3.42857ZM13.5 10.2857C10.8675 10.2857 5.625 11.6229 5.625 14.2857V16H21.375V14.2857C21.375 11.6229 16.1325 10.2857 13.5 10.2857ZM5.29875 10.9143C3.1275 11.1771 0 12.2971 0 14.2857V16H3.375V13.7943C3.375 12.64 4.15125 11.68 5.29875 10.9143ZM21.7013 10.9143C22.8488 11.68 23.625 12.64 23.625 13.7943V16H27V14.2857C27 12.2971 23.8725 11.1771 21.7013 10.9143ZM13.5 12.5714C15.2212 12.5714 17.145 13.1429 18.2587 13.7143H8.74125C9.855 13.1429 11.7788 12.5714 13.5 12.5714Z" fill="#B1A9A9"/>
</svg>
