<svg width="20" height="20" viewBox="0 0 20 20" fill="none" xmlns="http://www.w3.org/2000/svg">
<rect x="1.25" y="1.25" width="17.5" height="17.5" rx="3.75" stroke="#B1A9A9" stroke-width="2.5"/>
<line y1="5.41602" x2="0.833333" y2="5.41602" stroke="#B1A9A9" stroke-width="2.5"/>
<path d="M12.9513 9.35021L8.54161 6.879C8.44736 6.82814 8.3414 6.80282 8.2343 6.80554C8.12719 6.80827 8.02267 6.83896 7.93112 6.89454C7.83958 6.95013 7.7642 7.02869 7.71249 7.12239C7.66078 7.2161 7.63455 7.32169 7.63639 7.42866L7.78301 12.6162C7.78721 12.7231 7.81937 12.827 7.87629 12.9177C7.93321 13.0083 8.0129 13.0825 8.10744 13.1328C8.20198 13.1831 8.30807 13.2079 8.41516 13.2045C8.52225 13.2012 8.6266 13.17 8.71783 13.1139L12.9809 10.3975C13.0695 10.3404 13.1418 10.2614 13.1909 10.1682C13.2401 10.075 13.2643 9.97078 13.2613 9.86552C13.2584 9.76026 13.2283 9.65754 13.174 9.56728C13.1196 9.47702 13.043 9.40226 12.9513 9.35021Z" stroke="#B1A9A9" stroke-width="2.5" stroke-linecap="round" stroke-linejoin="round"/>
</svg>
